<svg xmlns="http://www.w3.org/2000/svg" viewBox="0 0 161.28 344.61"><defs><style>.cls-1,.cls-2,.cls-3{stroke:#000;}.cls-1,.cls-2{stroke-miterlimit:10;}.cls-1{stroke-width:0.75px;}.cls-2,.cls-3{fill:none;stroke-linecap:round;stroke-width:6px;}.cls-3{stroke-linejoin:round;}</style></defs><g id="图层_2" data-name="图层 2"><g id="logo"><path class="cls-1" d="M146.21,138.63h-2.75L142.77,178c-7.27-10.88-2.19-3.34-10.89-17-12.69-19.93-11.71-70.67-11.25-101.73q11,8.85,17.89,14.46t22,20.88V80.14L133.7,63.27q8.25-9.65,16.51-18.48t10.32-6.43l-4.82-19.28-2.06.81q2.07,7.23-6.54,18.88T129.57,60.86l-8.94-5.63q0-17.65,1.38-41l4.81-6.42L118.57.61l-3.44,7.23c-39.9,5.36-68,2.32-76.69,2.32l8.94,8c3.2-.53,28.3,2.24,67.75-3.12-1.84,43.38-2.33,74.92-1.07,92.2,1.44,19.84-.3,42.84,19.63,71.83,9.19,13.37,3.11,7.73,17.34,12.55Q148.27,176.38,146.21,138.63Z"/><path class="cls-1" d="M15,29.06c3.67,4.82,5.27,26.85,4.82,38.1v96c0,6.43-.93,11.51-2.75,15.26L24,191.26q2.73,3.19,2.06-10.45v-112c0-9.1,1.14-28.46,3.44-30.07L16.38,26.65Z"/><path class="cls-1" d="M23,6.5,21,8.11c8.7,15.54,7.44,16.05,10.19,23.54A90.89,90.89,0,0,0,36,18C30.5,13.11,31.72,15.61,23,6.5Z"/><path class="cls-2" d="M100.59,171.19a21.34,21.34,0,0,0,1.13-6.85c0-12.55-10.83-22.73-24.18-22.73s-24.18,10.18-24.18,22.73c0,.36,0,.71,0,1.06-9.11,2.8-15.7,10.84-15.7,20.34,0,11.82,10.19,21.4,22.76,21.4H98.16c10.6,0,19.2-8.09,19.2-18.06C117.36,179.89,110.05,172.32,100.59,171.19Z"/><path class="cls-2" d="M88.65,207.3c7.38-.16,15.29-5.23,15.88-12.92.48-6.15-4.44-11.5-11-11.95-5.23-.35-9.79,3.35-10.16,8.27a7.3,7.3,0,0,0,7,7.65"/><path class="cls-2" d="M100.85,171.84A14.06,14.06,0,0,1,82,174.56a9.77,9.77,0,0,1-2.32-14.19,9,9,0,0,1,12.08-1.74,6.25,6.25,0,0,1,1.48,9.08"/><path d="M31.27,193.71a88.79,88.79,0,0,0-6.63,19.1c-2.79,13.09-1.32,26.14.7,39.31,2.07,13.53,4.6,27.26,4.79,41.14.67,22.47-6,45.12-30.13,51.35,23.62-14,22.51-36.67,19.86-60.89-3.82-31-12.9-64.57,11.41-90Z"/><path d="M60.08,215.39a17.68,17.68,0,0,0-.78,7.37c.44,5.57,1.68,11,2,16.69.8,12,0,27.67-10.32,35.74,1.86-9.85.91-19.84.58-29.72-.12-8.81-.82-25.56,8.48-30.08Z"/><path d="M84.27,217.36c-.56,2.52.19,4.45.57,6.84a37.51,37.51,0,0,1,.78,7.13c.06,5-1.05,11.21-5.61,14.11a43.55,43.55,0,0,0,0-7.13c-.18-5.64-2.14-18.17,4.24-20.95Z"/><path d="M82.46,276.53c-.56,2.53.19,4.46.57,6.84a37.61,37.61,0,0,1,.78,7.14c.06,4.95-1.06,11.2-5.61,14.11a43.55,43.55,0,0,0,0-7.13c-.18-5.64-2.14-18.17,4.24-21Z"/><path d="M57,276.61c-2.21,7,.43,13.35.84,20.34.87,12.75-1.15,19.44-12.84,25.66.23-4,2.3-8.37,3-11.87.39-3.23,0-7,.06-10.55.21-8.07.13-19.89,9-23.58Z"/><circle class="cls-2" cx="81.73" cy="260.22" r="8.15"/><path d="M98.57,215.58c9.41,11.06,13.9,25.74,14,40.19a95.71,95.71,0,0,1-1.44,14.14c-1.2,8.71-1.74,16.95-.08,25.13,1.68,8.64,5.71,16.63,9.94,24.57-12.3-8-20.92-21.71-21.94-36.5-.66-7.32.14-14.38,1.15-21.48,2.06-15.36.25-30.61-1.64-46Z"/><path class="cls-3" d="M70.27,29.44H43.09V47.56C58.1,47.56,70.27,39.45,70.27,29.44Z"/><path class="cls-3" d="M97.45,47.56V29.44H70.27C70.27,39.45,82.44,47.56,97.45,47.56Z"/><path class="cls-3" d="M97.45,47.56c-15,0-27.18,8.12-27.18,18.12H97.45Z"/><path class="cls-3" d="M43.09,47.56V65.68H70.27C70.27,55.68,58.1,47.56,43.09,47.56Z"/><path class="cls-3" d="M43.09,65.68A14.87,14.87,0,0,1,34,78.37"/><path class="cls-3" d="M54,65.68c-1.29,8.52-3.82,13-7.25,12.69"/><path class="cls-3" d="M86.58,65.68c1.28,8.52,3.81,13,7.24,12.69"/><path class="cls-3" d="M97.45,65.68a14.85,14.85,0,0,0,9.06,12.69"/><line class="cls-3" x1="34.03" y1="78.37" x2="106.51" y2="78.37"/><line class="cls-3" x1="70.27" y1="65.68" x2="70.27" y2="78.37"/><rect class="cls-3" x="34.03" y="78.37" width="72.48" height="54.36"/><line class="cls-3" x1="70.27" y1="87.43" x2="70.27" y2="123.67"/><circle class="cls-3" cx="57.58" cy="105.55" r="5.44"/><circle class="cls-3" cx="82.95" cy="105.55" r="5.44"/></g></g></svg>