<svg xmlns="http://www.w3.org/2000/svg" viewBox="0 0 94 115"><defs><style>.cls-1{fill:none;stroke:#000;stroke-linecap:round;stroke-linejoin:round;stroke-width:3px;}</style></defs><g id="图层_2" data-name="图层 2"><g id="柱"><polygon class="cls-1" points="29.5 33.5 1.5 27.5 1.5 15.5 29.5 15.5 29.5 33.5"/><polygon class="cls-1" points="68.5 98.5 25.5 98.5 16.5 113.5 77.5 113.5 68.5 98.5"/><line class="cls-1" x1="6.5" y1="19.5" x2="14.5" y2="19.5"/><line class="cls-1" x1="14.5" y1="26.5" x2="14.5" y2="19.5"/><line class="cls-1" x1="22.5" y1="26.5" x2="14.5" y2="26.5"/><line class="cls-1" x1="22.5" y1="19.5" x2="22.5" y2="26.5"/><line class="cls-1" x1="6.5" y1="19.5" x2="6.5" y2="22.5"/><line class="cls-1" x1="22.5" y1="19.5" x2="18.5" y2="19.5"/><polygon class="cls-1" points="64.5 33.5 92.5 27.5 92.5 15.5 64.5 15.5 64.5 33.5"/><line class="cls-1" x1="87.5" y1="19.5" x2="79.5" y2="19.5"/><line class="cls-1" x1="79.5" y1="26.5" x2="79.5" y2="19.5"/><line class="cls-1" x1="71.5" y1="26.5" x2="79.5" y2="26.5"/><line class="cls-1" x1="71.5" y1="19.5" x2="71.5" y2="26.5"/><line class="cls-1" x1="87.5" y1="19.5" x2="87.5" y2="22.5"/><line class="cls-1" x1="71.5" y1="19.5" x2="75.5" y2="19.5"/><polyline class="cls-1" points="29.5 5.5 29.5 98.5 64.5 98.5 64.5 5.5"/><ellipse class="cls-1" cx="47" cy="5.5" rx="17.5" ry="4"/><path class="cls-1" d="M64.5,32.5c0,2.21-7.84,4-17.5,4s-17.5-1.79-17.5-4"/><path class="cls-1" d="M64.5,27.5c0,2.21-7.84,4-17.5,4s-17.5-1.79-17.5-4"/><path class="cls-1" d="M64.5,10.5c0,2.21-7.84,4-17.5,4s-17.5-1.79-17.5-4"/></g></g></svg>