<svg xmlns="http://www.w3.org/2000/svg" viewBox="0 0 130 89.7"><defs><style>.cls-1{fill:none;stroke:#000;stroke-linecap:round;stroke-linejoin:round;stroke-width:3px;}</style></defs><g id="图层_2" data-name="图层 2"><g id="栏"><rect class="cls-1" x="7.61" y="1.5" width="10.99" height="10.99"/><rect class="cls-1" x="2.72" y="17.38" width="20.76" height="7.33"/><rect class="cls-1" x="7.61" y="29.59" width="10.99" height="45.18"/><rect class="cls-1" x="1.5" y="79.65" width="23.2" height="8.55"/><rect class="cls-1" x="111.4" y="1.5" width="10.99" height="10.99"/><rect class="cls-1" x="106.52" y="17.38" width="20.76" height="7.33"/><rect class="cls-1" x="111.4" y="29.59" width="10.99" height="45.18"/><rect class="cls-1" x="105.3" y="79.65" width="23.2" height="8.55"/><line class="cls-1" x1="105.3" y1="29.59" x2="24.7" y2="29.59"/><line class="cls-1" x1="105.3" y1="43.02" x2="24.7" y2="43.02"/><line class="cls-1" x1="24.7" y1="74.77" x2="105.3" y2="74.77"/><line class="cls-1" x1="24.7" y1="34.47" x2="24.7" y2="38.13"/><line class="cls-1" x1="105.3" y1="34.47" x2="105.3" y2="38.13"/><line class="cls-1" x1="95.22" y1="34.47" x2="95.22" y2="38.13"/><line class="cls-1" x1="85.15" y1="34.47" x2="85.15" y2="38.13"/><line class="cls-1" x1="75.07" y1="34.47" x2="75.07" y2="38.13"/><line class="cls-1" x1="65" y1="34.47" x2="65" y2="38.13"/><line class="cls-1" x1="54.93" y1="34.47" x2="54.93" y2="38.13"/><line class="cls-1" x1="44.85" y1="34.47" x2="44.85" y2="38.13"/><line class="cls-1" x1="34.78" y1="34.47" x2="34.78" y2="38.13"/><path class="cls-1" d="M64.69,68.66c22.09,0,40-9,40-20.15h-80C24.7,59.64,42.61,68.66,64.69,68.66Z"/></g></g></svg>