<svg xmlns="http://www.w3.org/2000/svg" viewBox="0 0 114.08 85.28"><defs><style>.cls-1{fill:none;stroke:#000;stroke-miterlimit:10;stroke-width:3px;}</style></defs><g id="图层_2" data-name="图层 2"><g id="窗"><path class="cls-1" d="M57,42.64C57,28.33,41.2,16.72,21.66,16.72,21.66,31,37.5,42.64,57,42.64Z"/><path class="cls-1" d="M57,42.64c-19.54,0-35.38,11.6-35.38,25.92C41.2,68.56,57,57,57,42.64Z"/><path class="cls-1" d="M57,42.64c19.54,0,35.38-11.6,35.38-25.92C72.88,16.72,57,28.33,57,42.64Z"/><path class="cls-1" d="M57,42.64C57,57,72.88,68.56,92.42,68.56,92.42,54.24,76.58,42.64,57,42.64Z"/><path class="cls-1" d="M112.58,59.92V25.36A23.86,23.86,0,0,1,88.72,1.5H25.35c0,.14,0,.27,0,.41A23.86,23.86,0,0,1,1.5,25.77V59.92A23.86,23.86,0,0,1,25.36,83.78H88.72A23.86,23.86,0,0,1,112.58,59.92Z"/><path class="cls-1" d="M25.36,1.91c0-.14,0-.27,0-.41h-14A9.9,9.9,0,0,0,1.5,11.37v14.4A23.86,23.86,0,0,0,25.36,1.91Z"/><path class="cls-1" d="M1.5,59.92v14a9.9,9.9,0,0,0,9.87,9.87h14A23.86,23.86,0,0,0,1.5,59.92Z"/><path class="cls-1" d="M112.58,73.91v-14A23.86,23.86,0,0,0,88.72,83.78h14A9.91,9.91,0,0,0,112.58,73.91Z"/><path class="cls-1" d="M112.58,25.36v-14A9.91,9.91,0,0,0,102.7,1.5h-14A23.86,23.86,0,0,0,112.58,25.36Z"/></g></g></svg>