<?xml version="1.0" standalone="no"?><!DOCTYPE svg PUBLIC "-//W3C//DTD SVG 1.1//EN" "http://www.w3.org/Graphics/SVG/1.1/DTD/svg11.dtd"><svg t="1686749473481" class="icon" viewBox="0 0 1024 1024" version="1.1" xmlns="http://www.w3.org/2000/svg" p-id="1260" xmlns:xlink="http://www.w3.org/1999/xlink" width="200" height="200"><path d="M506.922667 778.581333a42.666667 42.666667 0 1 0 56.32 64.170667l303.701333-266.581333a85.333333 85.333333 0 0 0-0.085333-128.341334l-304.64-266.624a42.666667 42.666667 0 1 0-56.234667 64.256L810.666667 512l-303.744 266.538667z" fill="#303133" p-id="1261"></path><path d="M122.922667 778.581333a42.666667 42.666667 0 1 0 56.32 64.170667l303.701333-266.581333a85.333333 85.333333 0 0 0-0.085333-128.341334l-304.64-266.624a42.666667 42.666667 0 1 0-56.234667 64.256L426.666667 512l-303.744 266.538667z" fill="#303133" p-id="1262"></path></svg>