<svg id="图层_1" data-name="图层 1" xmlns="http://www.w3.org/2000/svg" viewBox="0 0 187.37 159.93"><defs><style>.cls-1{fill:#13227a;}</style></defs><path class="cls-1" d="M184.48,73l-70-70a9.89,9.89,0,0,0-14,0L99,4.36l66.9,66.89a12.36,12.36,0,0,1,0,17.44L99,155.6l1.44,1.45a9.93,9.93,0,0,0,7,2.89v0a9.91,9.91,0,0,0,7-2.9l70-70.06A9.91,9.91,0,0,0,184.48,73Z" transform="translate(0 -0.01)"/><path class="cls-1" d="M157,73,87,2.91h0a9.9,9.9,0,0,0-14,0L2.9,73a9.89,9.89,0,0,0,0,14L73,157a9.93,9.93,0,0,0,14,0L157,87A9.93,9.93,0,0,0,157,73ZM135.89,85.06l0,0-50.8,50.81a7.19,7.19,0,0,1-10.16,0L24.11,85.12a7.18,7.18,0,0,1,0-10.15l50.8-50.85a7.19,7.19,0,0,1,10.16,0l50.8,50.81A7.17,7.17,0,0,1,135.89,85.06Z" transform="translate(0 -0.01)"/></svg>