<?xml version="1.0" standalone="no"?><!DOCTYPE svg PUBLIC "-//W3C//DTD SVG 1.1//EN" "http://www.w3.org/Graphics/SVG/1.1/DTD/svg11.dtd"><svg t="1686843518807" class="icon" viewBox="0 0 1024 1024" version="1.1" xmlns="http://www.w3.org/2000/svg" p-id="4782" xmlns:xlink="http://www.w3.org/1999/xlink" width="200" height="200"><path d="M399.428 214.028h-2.047 3.277c-0.41 0.406-0.82 0-1.23 0z m0 0" p-id="4783" fill="#13227a"></path><path d="M613.651 920.679a50.749 50.749 0 0 1-35.863-14.812l-40.227-40.231 318.473-318.468a50.738 50.738 0 0 0 0-71.782L537.561 156.914l40.227-40.227a50.722 50.722 0 0 1 71.781 0l358.649 358.649a50.737 50.737 0 0 1 14.878 35.89 50.748 50.748 0 0 1-14.878 35.891L649.569 905.816a50.75 50.75 0 0 1-35.918 14.863z m0 0" fill="#13227a" p-id="4784"></path><path d="M446.604 116.687l358.699 358.699c19.805 19.809 19.805 51.918 0 71.731L446.604 905.816c-19.808 19.801-51.922 19.801-71.73 0L16.175 547.117c-19.801-19.813-19.801-51.922 0-71.731l358.699-358.699c19.808-19.804 51.922-19.804 71.73 0z m0 0" fill="#13227a" p-id="4785"></path></svg>