<svg xmlns="http://www.w3.org/2000/svg" viewBox="0 0 127.5 73.13"><defs><style>.cls-1,.cls-2{fill:none;stroke:#fff;stroke-linecap:round;stroke-width:3px;}.cls-1{stroke-miterlimit:10;}.cls-2{stroke-linejoin:round;}</style></defs><g id="图层_2" data-name="图层 2"><g id="檐"><path class="cls-1" d="M33.29,25.36c0,18.54,15.89,35.76,29.14,41.05"/><path class="cls-1" d="M90.24,12.11c0,18.54,15.89,35.76,29.14,41.06"/><path class="cls-1" d="M33.29,25.36C32,39.93,14.74,58.47,5.47,62.44"/><line class="cls-1" x1="5.47" y1="62.44" x2="62.43" y2="66.42"/><line class="cls-1" x1="119.38" y1="53.17" x2="62.43" y2="66.41"/><path class="cls-2" d="M96.86,2.84c-2.33,1.53-2.59,1.93-5.31,2.57L39.63,17.61A28.64,28.64,0,0,1,29.52,18l-4.71-.64a8.25,8.25,0,0,0,3.06,4.94c4.46,3.42,7.14,2.1,9,1.67L90.63,11.52l3.58-.73c1.89-.44,3.44-3.44,4-5.3v-4C98.24,1.33,96.86,2.84,96.86,2.84Z"/><path class="cls-1" d="M32.42,43.24c2.18,6.21,8.27,13,11.41,16.08"/><path class="cls-1" d="M32.42,43.24c-2,5.45-8.66,12.71-10.9,14.52"/><path class="cls-1" d="M44,31.24C45.3,42.67,55.67,54,63.09,58.12"/><path class="cls-1" d="M81.09,22c1.3,11.42,11.67,22.72,19.08,26.88"/><path class="cls-1" d="M69.17,25.94c1.3,11.43,11.67,22.72,19.08,26.88"/><path class="cls-1" d="M57.25,28.59C58.55,40,68.92,51.31,76.33,55.47"/><path class="cls-1" d="M1.5,67.74l56.43,3.8a36.62,36.62,0,0,0,10.89-.89L126,57.14"/></g></g></svg>